<?xml version="1.0" standalone="no"?>
<!DOCTYPE svg PUBLIC "-//W3C//DTD SVG 20010904//EN"
 "http://www.w3.org/TR/2001/REC-SVG-20010904/DTD/svg10.dtd">
<svg version="1.0" xmlns="http://www.w3.org/2000/svg"
 width="400.000000pt" height="400.000000pt" viewBox="0 0 400.000000 400.000000"
 preserveAspectRatio="xMidYMid meet">
<metadata>
Created by potrace 1.14, written by Peter Selinger 2001-2017
</metadata>
<g transform="translate(0.000000,400.000000) scale(0.100000,-0.100000)"
fill="#000000" stroke="none">
<path d="M1926 3384 c-61 -61 -126 -137 -126 -148 0 -4 -13 -21 -30 -39 -16
-18 -30 -37 -30 -44 0 -6 -3 -13 -7 -15 -11 -4 -43 -75 -43 -93 0 -7 -3 -15
-7 -17 -11 -4 -41 -67 -49 -101 -3 -15 -10 -30 -15 -33 -5 -3 -9 -14 -9 -24 0
-11 -7 -43 -16 -72 -14 -45 -23 -56 -55 -71 -35 -17 -38 -22 -45 -74 -7 -58 1
-239 12 -267 8 -20 71 -38 94 -26 9 5 26 7 37 4 18 -5 21 0 27 50 4 31 12 56
17 56 5 0 9 8 9 18 0 35 98 172 123 172 29 0 35 30 39 206 5 167 8 192 39 269
4 11 22 56 39 100 17 44 44 106 61 137 34 68 34 68 10 68 -10 0 -44 -25 -75
-56z"/>
<path d="M2410 3384 c-44 -38 -94 -87 -111 -112 -13 -17 -68 -85 -111 -135
-10 -11 -18 -26 -18 -33 0 -7 -3 -14 -7 -16 -10 -4 -34 -55 -85 -178 -5 -14
-16 -38 -24 -53 -8 -16 -14 -37 -14 -48 0 -10 -4 -19 -9 -19 -5 0 -12 -13 -16
-30 -6 -26 -11 -30 -38 -30 -64 -1 -72 -17 -72 -145 0 -105 2 -115 23 -138 17
-18 34 -25 68 -25 38 -1 44 2 44 19 0 28 46 122 70 144 11 10 20 22 20 27 0
13 42 47 58 48 6 0 12 5 12 10 0 6 6 10 13 10 10 0 14 19 15 71 1 39 6 86 11
103 6 17 17 58 26 91 25 94 47 168 56 190 4 11 17 41 28 67 12 26 21 51 21 55
0 4 18 32 41 61 23 32 39 62 37 74 -3 20 -5 20 -38 -8z"/>
<path d="M1430 3340 c-14 -5 -52 -16 -85 -26 -33 -10 -64 -21 -70 -25 -5 -4
-28 -10 -50 -14 -22 -4 -63 -18 -91 -31 -28 -13 -58 -24 -67 -24 -10 0 -17 -4
-17 -9 0 -5 -14 -13 -32 -16 -17 -4 -54 -22 -82 -39 -28 -18 -59 -35 -68 -39
-35 -13 -9 -87 30 -87 7 0 12 -3 12 -8 0 -4 15 -16 33 -25 19 -10 45 -28 58
-40 46 -42 107 -87 118 -87 6 0 11 -4 11 -9 0 -5 10 -11 23 -15 12 -3 35 -17
51 -31 16 -14 35 -25 43 -25 7 0 13 -4 13 -8 0 -4 30 -24 68 -43 37 -18 70
-38 74 -44 4 -5 10 -7 13 -3 13 12 21 153 12 200 -7 36 -6 70 7 136 18 98 46
192 57 192 4 0 10 14 14 30 4 17 10 30 14 30 4 0 12 10 18 23 19 41 -35 60
-107 37z"/>
<path d="M2740 3189 c-19 -16 -39 -33 -45 -38 -5 -4 -37 -37 -69 -72 -63 -69
-113 -143 -135 -199 -27 -74 -51 -146 -56 -172 -5 -24 -9 -26 -48 -25 -50 2
-68 -12 -86 -64 -10 -33 -8 -126 5 -170 7 -24 51 -40 89 -33 18 3 41 1 52 -4
25 -14 40 -4 49 33 6 27 29 71 44 85 3 3 10 14 16 24 6 11 25 27 42 35 l32 16
0 88 c0 83 20 201 41 239 5 10 9 23 9 29 0 23 83 194 105 216 13 13 11 43 -4
43 -3 0 -22 -14 -41 -31z"/>
<path d="M728 3022 c-53 -35 -145 -138 -179 -200 -11 -20 -31 -55 -44 -77 -13
-22 -24 -50 -25 -62 0 -13 -4 -23 -8 -23 -5 0 -16 -19 -26 -42 -10 -24 -25
-59 -33 -78 -8 -19 -18 -44 -23 -55 -8 -21 -29 -168 -28 -197 1 -10 21 -30 45
-45 24 -15 43 -31 43 -35 0 -4 7 -8 15 -8 13 0 65 -20 107 -41 10 -5 30 -9 44
-9 14 0 58 -8 96 -17 72 -17 91 -14 112 20 11 17 -8 65 -31 80 -7 4 -13 17
-13 27 0 15 7 20 28 20 15 0 45 7 67 15 53 19 119 19 135 0 7 -8 23 -15 36
-15 13 0 24 -4 24 -10 0 -5 5 -10 11 -10 6 0 25 -6 42 -14 82 -35 94 -38 137
-26 55 15 112 72 146 146 24 54 26 64 19 144 -7 87 -21 120 -54 120 -9 0 -25
7 -35 15 -11 8 -25 15 -30 15 -6 0 -27 -29 -45 -65 -19 -36 -37 -65 -40 -65
-4 0 -20 -12 -36 -28 -61 -54 -105 -65 -162 -39 -37 16 -83 57 -83 74 0 7 -4
13 -9 13 -5 0 -24 26 -42 57 -31 55 -33 60 -33 173 -1 86 3 122 13 134 12 15
7 23 -44 71 -32 30 -60 55 -64 55 -3 0 -18 -8 -33 -18z m-132 -429 c7 -10 14
-25 14 -33 0 -8 7 -28 15 -44 19 -36 19 -50 0 -66 -12 -10 -20 -6 -48 24 -25
26 -43 36 -66 36 -23 0 -31 5 -31 18 0 18 26 61 44 74 20 14 59 8 72 -9z"/>
<path d="M3014 2938 c-52 -41 -82 -76 -137 -160 -52 -80 -69 -110 -97 -170
-10 -20 -21 -28 -40 -28 -15 0 -35 -9 -45 -20 -15 -17 -17 -31 -11 -100 9
-105 19 -123 68 -117 21 3 41 1 44 -4 10 -17 44 -10 44 9 0 25 56 129 83 155
20 19 25 36 31 111 4 48 11 96 16 105 21 40 40 90 40 105 0 9 5 16 10 16 6 0
10 9 10 19 0 11 7 26 15 35 8 8 15 19 15 25 0 6 4 11 9 11 5 0 11 7 15 15 9
24 -37 19 -70 -7z"/>
<path d="M3530 2751 c-8 -5 -32 -12 -54 -15 -65 -12 -144 -54 -201 -109 -30
-28 -55 -58 -55 -64 0 -7 -4 -13 -8 -13 -5 0 -14 -11 -20 -25 -9 -19 -19 -25
-42 -25 -50 0 -61 -20 -67 -123 -6 -93 -6 -94 23 -120 18 -17 40 -27 60 -27
27 0 34 6 57 53 15 29 27 55 27 59 0 14 86 96 108 103 14 4 22 14 22 29 0 13
7 29 15 36 8 7 15 18 15 25 0 8 3 15 8 17 4 2 23 23 42 48 42 56 55 69 112
113 26 19 44 38 41 41 -9 9 -66 7 -83 -3z"/>
<path d="M1798 2568 c-23 -32 -29 -43 -65 -123 -21 -47 -26 -231 -7 -243 6 -4
15 -26 19 -49 4 -24 11 -45 16 -49 5 -3 9 -16 9 -28 0 -13 7 -41 16 -62 20
-51 96 -208 103 -214 8 -7 30 -42 38 -60 10 -24 73 -100 83 -100 14 0 -1 71
-26 126 -13 28 -24 65 -24 82 0 17 -4 33 -9 36 -5 4 -12 25 -16 49 -4 23 -11
47 -16 52 -8 11 -22 85 -39 200 -4 33 -13 83 -20 110 -6 28 -11 107 -11 178 1
141 -7 154 -51 95z"/>
<path d="M2168 2573 c-50 -54 -84 -138 -80 -198 1 -18 52 -190 72 -240 21 -57
97 -198 108 -202 6 -3 12 -10 12 -17 1 -18 88 -117 95 -107 3 5 -4 34 -15 63
-11 29 -20 60 -20 68 0 8 -6 27 -14 42 -23 43 -58 186 -68 273 -5 44 -13 99
-18 123 -6 23 -10 83 -10 132 0 80 -2 90 -18 90 -10 0 -30 -12 -44 -27z"/>
<path d="M2594 2522 c-10 -7 -27 -35 -55 -96 -9 -17 -14 -61 -14 -110 1 -81
12 -128 54 -213 12 -23 21 -47 21 -53 0 -5 4 -10 9 -10 5 0 13 -10 18 -22 13
-35 67 -117 77 -118 4 0 6 10 3 23 -3 12 -11 45 -17 72 -7 28 -16 54 -21 59
-5 6 -9 30 -9 55 -1 26 -6 66 -11 91 -6 25 -14 108 -17 184 -7 133 -13 155
-38 138z"/>
<path d="M2962 2447 c-58 -33 -82 -136 -47 -203 8 -16 15 -35 15 -42 0 -7 4
-20 9 -30 98 -199 104 -202 95 -54 -3 59 -9 118 -13 132 -5 14 -5 35 0 46 4
12 9 53 10 90 3 67 2 69 -22 71 -13 2 -34 -3 -47 -10z"/>
<path d="M3350 2351 c0 -5 -10 -11 -22 -15 -31 -7 -79 -89 -81 -137 -1 -44 6
-51 98 -97 96 -48 205 -72 231 -51 11 9 6 20 -31 57 -48 48 -135 180 -135 204
0 17 -31 48 -48 48 -7 0 -12 -4 -12 -9z"/>
<path d="M1016 2143 c-29 -58 -65 -84 -154 -117 -66 -25 -77 -22 -96 27 -16
43 -17 44 -64 44 -51 0 -62 -8 -62 -49 0 -17 -5 -28 -14 -28 -20 0 -32 20 -40
61 -6 35 -8 36 -59 43 -28 3 -62 9 -75 12 -19 6 -22 3 -22 -24 0 -17 4 -33 9
-36 5 -3 12 -23 16 -43 7 -38 21 -52 85 -87 19 -10 62 -36 94 -57 33 -22 66
-39 73 -39 7 0 13 -3 13 -7 0 -5 21 -16 48 -26 26 -10 61 -24 77 -31 45 -20
188 -66 203 -66 8 0 28 -6 45 -14 40 -18 73 -25 167 -37 41 -6 89 -14 106 -20
17 -5 60 -9 97 -9 64 0 67 1 67 23 0 22 -77 107 -97 107 -5 0 -19 14 -33 32
-14 17 -43 50 -65 72 -47 48 -95 111 -95 124 0 5 -7 15 -15 22 -18 15 -20 71
-3 88 9 9 6 12 -15 12 -28 0 -110 24 -139 40 -27 15 -36 12 -52 -17z"/>
<path d="M1315 747 c-18 -26 -19 -49 -3 -65 17 -17 42 -15 61 6 27 29 21 59
-13 70 -26 9 -32 8 -45 -11z"/>
<path d="M1183 713 c-20 -18 -53 -71 -95 -153 -13 -25 -25 -47 -28 -50 -8 -8
-28 -41 -46 -78 -13 -26 -19 -30 -30 -21 -8 6 -14 16 -14 21 0 6 -7 26 -16 46
-9 21 -22 52 -30 70 -8 18 -14 41 -14 52 0 10 -4 22 -10 25 -5 3 -10 18 -10
33 -1 32 -21 62 -42 62 -24 0 -43 -46 -31 -72 6 -13 25 -59 43 -103 43 -108
45 -113 66 -170 34 -97 63 -100 109 -12 11 20 22 37 26 37 4 0 9 8 13 18 3 9
15 31 26 47 11 17 23 37 27 45 12 26 94 150 104 156 5 3 9 18 9 35 0 34 -25
39 -57 12z"/>
<path d="M1480 613 c-114 -66 -107 -141 18 -199 23 -10 42 -23 42 -29 0 -18
-52 -35 -106 -35 -45 0 -54 -3 -59 -21 -10 -32 11 -41 85 -36 88 5 150 43 150
90 0 24 -47 77 -68 77 -7 0 -12 4 -12 8 0 4 -13 13 -30 19 -16 6 -30 18 -30
26 0 23 49 57 81 57 39 0 59 10 59 29 0 47 -61 53 -130 14z"/>
<path d="M1686 588 c-13 -62 -24 -239 -17 -266 5 -19 14 -27 31 -27 24 0 28 4
60 75 19 41 33 67 53 94 32 45 46 60 54 53 4 -5 10 -45 12 -90 3 -88 11 -107
45 -107 23 0 44 20 68 66 8 16 27 53 42 82 15 29 33 51 39 49 7 -2 15 -37 19
-83 4 -43 12 -80 18 -82 5 -2 10 -10 10 -18 0 -21 54 -17 74 5 16 18 16 20 -2
38 -22 21 -30 45 -42 133 -9 64 -32 100 -65 100 -23 0 -70 -56 -100 -118 -17
-34 -33 -62 -36 -62 -10 0 -15 29 -18 90 -2 56 -23 90 -58 90 -19 0 -92 -79
-100 -107 -3 -13 -9 -23 -13 -23 -5 0 -11 -8 -14 -17 -3 -10 -3 14 0 53 6 83
0 104 -31 104 -17 0 -24 -7 -29 -32z"/>
<path d="M2369 596 c-37 -25 -89 -87 -89 -105 0 -6 -4 -11 -8 -11 -5 0 -17
-27 -27 -60 l-18 -60 28 -30 c28 -29 85 -43 85 -20 0 6 6 10 13 10 8 0 32 18
55 40 l42 39 0 -29 c0 -49 20 -80 50 -80 37 0 59 26 38 43 -27 21 -41 81 -29
124 16 56 14 133 -3 133 -7 0 -19 7 -26 15 -19 22 -71 18 -111 -9z m79 -80
c-3 -25 -13 -52 -21 -61 -9 -9 -22 -24 -29 -33 -17 -23 -59 -52 -75 -52 -18 0
-16 45 4 83 23 45 84 106 107 107 16 0 18 -6 14 -44z"/>
<path d="M1278 593 c-9 -10 -18 -36 -21 -58 -3 -22 -10 -74 -16 -115 -14 -93
-8 -130 22 -130 40 0 50 15 44 60 -6 47 7 161 24 202 9 22 8 30 -4 43 -20 19
-30 19 -49 -2z"/>
<path d="M2627 592 c-11 -12 -17 -37 -17 -73 -1 -30 -5 -84 -9 -122 -12 -88
-6 -109 28 -105 19 2 27 10 30 28 1 14 6 27 10 30 3 3 14 21 24 40 38 72 53
95 73 118 18 21 22 21 33 8 8 -9 17 -47 21 -84 4 -38 14 -82 21 -98 18 -37 59
-44 88 -15 28 28 27 51 -3 51 -25 0 -34 25 -51 135 -13 85 -73 110 -133 56
-17 -17 -32 -35 -32 -40 0 -6 -4 -11 -9 -11 -5 0 -12 -8 -14 -17 -3 -10 -5 7
-6 38 -1 73 -22 96 -54 61z"/>
</g>
</svg>
